<svg id="SvgjsSvg1001" width="288" height="288" xmlns="http://www.w3.org/2000/svg" version="1.1" xmlns:xlink="http://www.w3.org/1999/xlink" xmlns:svgjs="http://svgjs.com/svgjs"><defs id="SvgjsDefs1002"></defs><g id="SvgjsG1008"><svg xmlns="http://www.w3.org/2000/svg" viewBox="0 0 16 16" width="288" height="288"><path fill="#2b2e3a" d="M3.995 4.497a4 4 0 0 1 4-4 4 4 0 0 1 4 4" class="colorc2e4f8 svgShape"></path><path fill="#2b2e3a" fill-rule="evenodd" d="M4.01 4.504c0 2.996 2.6 5.337 3.9 8 1.368-2.664 4.1-5.004 4.1-8" class="colorc2e4f8 svgShape"></path><path style="line-height:normal;text-indent:0;text-align:start;text-decoration-line:none;text-decoration-style:solid;text-decoration-color:#000;text-transform:none;block-progression:tb;isolation:auto;mix-blend-mode:normal" fill="#9feaf9" d="M7.994 1036.36c-2.48 0-4.5 2.02-4.5 4.5a.5.5 0 1 0 1 0c0-1.94 1.561-3.5 3.5-3.5 1.94 0 3.5 1.56 3.5 3.5a.5.5 0 1 0 1 0c0-2.48-2.02-4.5-4.5-4.5z" color="#000" font-family="sans-serif" font-weight="400" overflow="visible" transform="translate(0 -1036.362)" class="color249fe6 svgShape"></path><path style="line-height:normal;text-indent:0;text-align:start;text-decoration-line:none;text-decoration-style:solid;text-decoration-color:#000;text-transform:none;block-progression:tb;isolation:auto;mix-blend-mode:normal" fill="#9feaf9" fill-rule="evenodd" d="M4.004 1040.36a.5.5 0 0 0-.494.505c0 1.643.708 3.07 1.539 4.393.83 1.322 1.794 2.563 2.412 3.828a.5.5 0 0 0 .894.01c.65-1.264 1.662-2.506 2.536-3.828.873-1.322 1.619-2.75 1.619-4.4a.5.5 0 1 0-1 0c0 1.346-.619 2.586-1.453 3.849-.688 1.04-1.466 2.116-2.137 3.232-.637-1.112-1.371-2.185-2.024-3.222-.793-1.263-1.386-2.506-1.386-3.86a.5.5 0 0 0-.506-.506z" color="#000" font-family="sans-serif" font-weight="400" overflow="visible" transform="translate(0 -1036.362)" class="color249fe6 svgShape"></path><path fill="#2b2e3a" d="M8.995 4.5a1 1 0 0 1-1 1 1 1 0 0 1-1-1 1 1 0 0 1 1-1 1 1 0 0 1 1 1z" class="colorfff svgShape"></path><path style="line-height:normal;text-indent:0;text-align:start;text-decoration-line:none;text-decoration-style:solid;text-decoration-color:#000;text-transform:none;block-progression:tb;isolation:auto;mix-blend-mode:normal" fill="#9feaf9" d="M7.994 1039.361c-.822 0-1.5.678-1.5 1.5 0 .823.678 1.5 1.5 1.5.823 0 1.5-.677 1.5-1.5 0-.822-.677-1.5-1.5-1.5zm0 1c.282 0 .5.218.5.5 0 .282-.218.5-.5.5a.493.493 0 0 1-.5-.5c0-.282.218-.5.5-.5zm4.09 5.227a.5.5 0 0 0-.18.967c.997.403 1.638.933 1.914 1.42.277.487.27.907-.091 1.425-.725 1.036-3.036 1.954-5.674 1.965-2.639.011-4.982-.883-5.748-1.922-.383-.52-.402-.943-.145-1.427.258-.485.875-1.019 1.856-1.43a.5.5 0 1 0-.387-.922c-1.12.47-1.937 1.102-2.352 1.883-.415.78-.343 1.723.223 2.49 1.132 1.535 3.711 2.34 6.559 2.328 2.847-.012 5.402-.837 6.488-2.39.543-.777.58-1.722.14-2.494-.438-.773-1.273-1.394-2.408-1.854a.5.5 0 0 0-.195-.039z" color="#000" font-family="sans-serif" font-weight="400" overflow="visible" transform="translate(0 -1036.362)" class="color249fe6 svgShape"></path></svg></g></svg>